#!OML:ASF Y:\EmotionMaleHayes\Project 1\Capture day 1\Session 1\Male1.ASF
:FULLY-SPECIFIED
:DEGREES
405
root 29.8845 19.03 -6.46813 291.71 65.316 -68.514
lowerback 20.6289 1.97533 -0.641055
upperback 3.49641 2.58879 -0.739465
thorax -7.71398 1.33735 -1.13896
lowerneck -26.5479 1.3774 -2.08154
upperneck 19.9694 2.61962 0.478128
head 10.7622 1.09453 0.948196
rclavicle -2.3059e-014 1.27222e-014
rhumerus -43.3959 26.7317 -85.4762
rradius 55.0292
rwrist -4.94898
rhand -14.9203 -22.8694
rfingers 7.12502
rthumb 11.2416 -52.5482
lclavicle -2.3059e-014 1.27222e-014
lhumerus -22.0177 3.40959 55.359
lradius 67.6339
lwrist 32.1381
lhand -28.5516 -12.3466
lfingers 7.12502
lthumb -1.91867 17.6245
rfemur -7.28664 -9.6316 -4.71948
rtibia 7.96673
rfoot -25.4457 -26.6769
rtoes 25.6949
lfemur 3.92215 9.09977 5.17904
ltibia 22.0951
lfoot -14.8822 10.0661
ltoes -3.89417
406
root 29.9775 18.9451 -6.53125 289.676 65.4977 -70.686
lowerback 20.6526 1.80669 -0.470862
upperback 3.51605 2.41045 -0.705284
thorax -7.7018 1.24893 -1.15156
lowerneck -26.8072 1.503 -1.54499
upperneck 19.96 2.72261 -0.0412481
head 10.8202 1.11347 0.691712
rclavicle 1.59028e-015 1.01778e-013
rhumerus -43.6638 25.4518 -83.6477
rradius 53.9207
rwrist -4.26811
rhand -14.9471 -22.5649
rfingers 7.12502
rthumb 11.2158 -52.2451
lclavicle 1.59028e-015 1.01778e-013
lhumerus -21.9118 3.0439 56.9663
lradius 65.8701
lwrist 30.869
lhand -27.4599 -10.3474
lfingers 7.12502
lthumb -0.864277 19.6305
rfemur -7.19021 -9.70418 -4.95666
rtibia 8.26872
rfoot -25.3981 -26.4344
rtoes 25.1038
lfemur 4.05563 8.89186 5.31186
ltibia 21.3947
lfoot -16.4019 13.2108
ltoes -3.37859
407
root 30.0731 18.8497 -6.59664 288.146 65.7026 -72.3538
lowerback 20.545 1.71183 -0.415904
upperback 3.51783 2.29768 -0.732638
thorax -7.64055 1.1939 -1.1782
lowerneck -26.7808 1.56182 -1.29738
upperneck 19.9658 2.71944 -0.0923382
head 10.822 1.12503 0.632259
rclavicle 2.22639e-014 0
rhumerus -43.9737 24.0707 -81.7238
rradius 52.9292
rwrist -3.72015
rhand -15.2494 -22.2176
rfingers 7.12502
rthumb 10.9242 -51.9134
lclavicle 2.22639e-014 0
lhumerus -21.9987 2.5652 58.5423
lradius 64.2696
lwrist 29.4296
lhand -26.4184 -9.02138
lfingers 7.12502
lthumb 0.141633 20.9583
rfemur -7.22205 -9.75687 -5.29007
rtibia 8.53577
rfoot -25.4652 -26.0565
rtoes 25.2995
lfemur 4.30992 8.78028 5.26531
ltibia 20.509
lfoot -17.5906 16.5669
ltoes -1.46123
408
root 30.1705 18.7449 -6.66422 286.909 66.0643 -73.7225
lowerback 20.4067 1.67153 -0.524632
upperback 3.55363 2.21681 -0.838889
thorax -7.52826 1.15854 -1.2038
lowerneck -25.9711 1.08287 -2.02423
upperneck 19.3181 2.0856 0.784139
head 10.4253 0.904152 0.949399
rclavicle -7.15625e-015 -5.725e-014
rhumerus -44.2424 22.3711 -79.5811
rradius 52.1199
rwrist -3.05661
rhand -15.401 -22.2416
rfingers 7.12502
rthumb 10.778 -51.945
lclavicle -7.15625e-015 -5.725e-014
lhumerus -22.0658 1.89825 60.0779
lradius 62.7557
lwrist 28.0791
lhand -25.7166 -8.64372
lfingers 7.12502
lthumb 0.819456 21.3345
rfemur -7.3136 -9.58413 -5.81799
rtibia 8.76578
rfoot -24.6723 -26.0271
rtoes 23.5817
lfemur 4.50367 8.81686 4.97438
ltibia 19.7801
lfoot -18.6845 19.7078
ltoes 3.35663
409
root 30.2657 18.628 -6.73198 285.527 66.3645 -75.2099
lowerback 20.4226 1.61203 -0.562083
upperback 3.55999 2.12599 -0.924121
thorax -7.52891 1.11582 -1.25121
lowerneck -25.9209 0.973966 -1.94396
upperneck 19.1949 1.89055 0.826729
head 10.375 0.827656 0.918639
rclavicle 1.59028e-015 -4.13472e-014
rhumerus -44.4561 20.5608 -77.2707
rradius 51.2354
rwrist -2.42233
rhand -15.2004 -22.4173
rfingers 7.12502
rthumb 10.9715 -52.1106
lclavicle 1.59028e-015 -4.13472e-014
lhumerus -22.1744 0.934555 61.5768
lradius 61.3419
lwrist 27.0979
lhand -25.5391 -8.15428
lfingers 7.12502
lthumb 0.990942 21.8232
rfemur -7.39584 -9.1554 -6.24731
rtibia 9.05589
rfoot -24.5196 -25.9876
rtoes 23.5468
lfemur 4.65959 8.9503 4.77168
ltibia 19.2235
lfoot -20.3301 21.9972
ltoes 8.94873
410
root 30.3563 18.4989 -6.80175 283.774 66.4351 -77.1129
lowerback 20.4891 1.469 -0.317145
upperback 3.55484 1.99275 -0.918336
thorax -7.56411 1.04621 -1.35175
lowerneck -25.871 0.917629 -1.8929
upperneck 19.0817 1.81145 0.743889
head 10.3279 0.785581 0.866325
rclavicle 1.11319e-014 6.36111e-014
rhumerus -44.6141 18.8225 -74.8053
rradius 50.2841
rwrist -2.03423
rhand -15.0748 -22.3842
rfingers 7.12502
rthumb 11.0926 -52.071
lclavicle 1.11319e-014 6.36111e-014
lhumerus -22.3407 -0.286844 63.1076
lradius 60.1014
lwrist 26.686
lhand -25.9049 -7.65847
lfingers 7.12502
lthumb 0.637621 22.3203
rfemur -7.41512 -8.76885 -6.3771
rtibia 9.29335
rfoot -24.2415 -25.9776
rtoes 22.9461
lfemur 4.64925 9.44653 4.90024
ltibia 19.0279
lfoot -21.5836 23.3729
ltoes 7.64053
411
root 30.4425 18.359 -6.87531 282.27 66.7664 -78.7658
lowerback 20.5774 1.37899 -0.333476
upperback 3.56926 1.86939 -0.971573
thorax -7.59625 0.987787 -1.37019
lowerneck -25.9411 0.817881 -1.99396
upperneck 19.0395 1.68775 0.842376
head 10.3247 0.733973 0.898482
rclavicle 4.77083e-015 3.81667e-014
rhumerus -44.7461 16.9689 -72.1263
rradius 49.3768
rwrist -1.7392
rhand -15.1717 -22.2648
rfingers 7.12502
rthumb 10.9991 -51.9566
lclavicle 4.77083e-015 3.81667e-014
lhumerus -22.3372 -1.64457 64.7504
lradius 58.7761
lwrist 26.6163
lhand -26.6893 -7.81669
lfingers 7.12502
lthumb -0.119994 22.163
rfemur -7.5339 -8.27009 -6.86196
rtibia 9.61388
rfoot -23.8493 -25.8902
rtoes 22.0961
lfemur 4.4902 10.5592 4.68701
ltibia 19.4533
lfoot -22.0405 20.3673
ltoes 8.7267
412
root 30.5245 18.2084 -6.95209 281.144 67.1732 -80.0175
lowerback 20.7049 1.38396 -0.465063
upperback 3.56108 1.84293 -1.03834
thorax -7.67536 0.978066 -1.36509
lowerneck -26.0532 0.60789 -2.19161
upperneck 19.031 1.41824 1.06812
head 10.3422 0.624385 0.969406
rclavicle 1.11319e-014 -2.22639e-014
rhumerus -44.8887 15.0438 -69.2446
rradius 48.4822
rwrist -1.54218
rhand -15.3936 -22.2627
rfingers 7.12502
rthumb 10.7851 -51.9658
lclavicle 1.11319e-014 -2.22639e-014
lhumerus -22.3151 -3.17758 66.5187
lradius 57.5641
lwrist 26.6032
lhand -27.7151 -8.22193
lfingers 7.12502
lthumb -1.11076 21.7549
rfemur -7.85407 -7.5347 -7.45461
rtibia 10.1909
rfoot -23.7579 -25.5147
rtoes 22.5724
lfemur 4.28922 12.1082 4.302
ltibia 20.5216
lfoot -22.8298 18.1664
ltoes 7.94329
413
root 30.6074 18.0489 -7.02739 279.907 67.5495 -81.424
lowerback 20.7599 1.35431 -0.641516
upperback 3.55467 1.76497 -1.05626
thorax -7.7175 0.945197 -1.26517
lowerneck -26.5928 0.319184 -2.34399
upperneck 19.3473 1.06835 1.16478
head 10.5578 0.462352 0.979196
rclavicle 1.11319e-014 -2.54444e-014
rhumerus -44.9385 13.2732 -66.2215
rradius 47.6492
rwrist -1.50839
rhand -15.5157 -22.41
rfingers 7.12502
rthumb 10.6673 -52.1193
lclavicle 1.11319e-014 -2.54444e-014
lhumerus -22.4856 -4.84325 68.2936
lradius 56.6891
lwrist 26.5817
lhand -28.8048 -8.51449
lfingers 7.12502
lthumb -2.16324 21.4543
rfemur -8.15712 -6.86461 -7.98095
rtibia 10.8071
rfoot -23.7629 -25.0073
rtoes 23.4814
lfemur 3.91342 13.5279 3.82868
ltibia 22.0679
lfoot -24.2549 17.4199
ltoes 5.40309
414
root 30.6892 17.8791 -7.10211 278.372 67.822 -83.0869
lowerback 20.8589 1.24542 -0.752785
upperback 3.59272 1.60236 -1.04182
thorax -7.73426 0.871604 -1.14475
lowerneck -26.5019 0.338598 -2.52089
upperneck 19.081 1.09886 1.40103
head 10.4407 0.495249 1.09509
rclavicle -1.59028e-015 3.18055e-015
rhumerus -44.8373 11.4342 -63.0995
rradius 46.8326
rwrist -1.43979
rhand -15.3576 -22.7909
rfingers 7.12502
rthumb 10.8199 -52.4922
lclavicle -1.59028e-015 3.18055e-015
lhumerus -22.6935 -6.52241 70.0381
lradius 55.9261
lwrist 26.3601
lhand -29.8463 -8.81981
lfingers 7.12502
lthumb -3.16899 21.1364
rfemur -8.39191 -6.05685 -8.33904
rtibia 11.4071
rfoot -23.7036 -24.6495
rtoes 23.3544
lfemur 3.42855 14.2359 3.32064
ltibia 23.6089
lfoot -26.0676 17.5856
ltoes 1.96808
415
root 30.7638 17.6977 -7.18261 276.657 67.9716 -84.936
lowerback 21.0226 1.05661 -0.656901
upperback 3.66855 1.38329 -1.02057
thorax -7.73943 0.766886 -1.12038
lowerneck -26.2397 0.454175 -2.37079
upperneck 18.566 1.20661 1.33394
head 10.2063 0.550612 1.05666
rclavicle 1.59028e-015 6.36111e-014
rhumerus -44.4914 9.59587 -59.9476
rradius 45.7935
rwrist -1.51074
rhand -15.1993 -23.4368
rfingers 7.12502
rthumb 10.9726 -53.1301
lclavicle 1.59028e-015 6.36111e-014
lhumerus -22.7314 -8.11654 71.7645
lradius 55.1991
lwrist 25.6468
lhand -30.5739 -8.91193
lfingers 7.12502
lthumb -3.87169 21.0326
rfemur -8.71506 -5.29738 -8.54816
rtibia 12.1966
rfoot -22.8476 -24.2585
rtoes 21.5183
lfemur 2.94112 14.1763 2.76836
ltibia 24.6656
lfoot -28.1642 16.1983
ltoes 4.18066
